<mxfile host="app.diagrams.net" modified="2024-02-04T18:27:49.731Z" agent="Mozilla/5.0 (Macintosh; Intel Mac OS X 10_15_7) AppleWebKit/537.36 (KHTML, like Gecko) Chrome/121.0.0.0 Safari/537.36" version="23.1.1" etag="r_69IwfBAz_Ltv7HX0_9" type="github">
  <diagram name="페이지-1" id="eCO6QDaPLxMgt39l8lo8">
    <mxGraphModel>
      <root>
        <mxCell id="0" />
        <mxCell id="1" parent="0" />
      </root>
    </mxGraphModel>
  </diagram>
</mxfile>
